<svg width="541" height="72" viewBox="0 0 541 72" fill="none" xmlns="http://www.w3.org/2000/svg">
<path d="M63.905 48.75L64.1609 50.7336L64.1628 50.7333L63.905 48.75ZM34.61 52.53L32.6199 52.729L32.8247 54.7769L34.8659 54.5136L34.61 52.53ZM34.475 51.18L34.4071 49.1812L32.2724 49.2537L32.4849 51.379L34.475 51.18ZM125.87 48.075H127.87V46.0059L125.802 46.0762L125.87 48.075ZM125.87 69V71H127.87V69H125.87ZM5.72 69H3.72V71H5.72V69ZM5.72 52.125L5.37314 50.1553L3.72 50.4464V52.125H5.72ZM43.385 45.375L43.7457 47.3422L43.7536 47.3408L43.7615 47.3392L43.385 45.375ZM70.25 39.705L70.7177 41.6496L70.7264 41.6475L70.7351 41.6453L70.25 39.705ZM86.45 34.44L87.3081 36.2466L87.3264 36.2379L87.3444 36.2289L86.45 34.44ZM89.555 25.53L88.7034 27.3396L88.748 27.3606L88.7935 27.3794L89.555 25.53ZM81.185 24.045L81.049 26.0404L81.052 26.0406L81.185 24.045ZM42.44 25.935L43.0082 27.8526L43.0244 27.8478L43.0406 27.8427L42.44 25.935ZM34.475 32.82V34.82H36.2096L36.4549 33.1028L34.475 32.82ZM0.725 32.82H-1.275V34.82H0.725V32.82ZM8.015 15.675L6.61407 14.2476L8.015 15.675ZM29.615 4.74L30.1258 6.67371L30.1382 6.67036L29.615 4.74ZM88.745 1.905L88.5484 3.89532L88.5617 3.89662L88.5749 3.89775L88.745 1.905ZM108.185 5.415L107.599 7.32722L108.185 5.415ZM121.28 12.57L119.886 14.0046L119.897 14.0149L119.908 14.0252L121.28 12.57ZM121.415 34.305L120.092 32.8053L121.415 34.305ZM108.455 40.92L109.041 42.8322L108.455 40.92ZM88.745 45.24L88.4391 43.2635L88.745 45.24ZM63.6491 46.7664L34.3541 50.5464L34.8659 54.5136L64.1609 50.7336L63.6491 46.7664ZM36.6001 52.331L36.4651 50.981L32.4849 51.379L32.6199 52.729L36.6001 52.331ZM34.5429 53.1788L125.938 50.0738L125.802 46.0762L34.4071 49.1812L34.5429 53.1788ZM123.87 48.075V69H127.87V48.075H123.87ZM125.87 67H5.72V71H125.87V67ZM7.72 69V52.125H3.72V69H7.72ZM6.06686 54.0947C20.3801 51.5741 32.9399 49.3233 43.7457 47.3422L43.0243 43.4078C32.2301 45.3867 19.6799 47.6359 5.37314 50.1553L6.06686 54.0947ZM43.7615 47.3392C54.5785 45.266 63.5665 43.3695 70.7177 41.6496L69.7823 37.7604C62.7135 39.4605 53.7915 41.344 43.0085 43.4108L43.7615 47.3392ZM70.7351 41.6453C77.9739 39.8356 83.5269 38.0426 87.3081 36.2466L85.5919 32.6334C82.1731 34.2573 76.9261 35.9744 69.7649 37.7647L70.7351 41.6453ZM87.3444 36.2289C90.9902 34.406 93.85 31.9753 93.85 28.635H89.85C89.85 29.4347 89.1098 30.874 85.5556 32.6511L87.3444 36.2289ZM93.85 28.635C93.85 27.5404 93.5515 26.4922 92.8846 25.59C92.2316 24.7065 91.3241 24.0955 90.3165 23.6806L88.7935 27.3794C89.3159 27.5945 89.5559 27.816 89.6679 27.9675C89.7661 28.1003 89.85 28.2896 89.85 28.635H93.85ZM90.4066 23.7204C88.4995 22.8229 85.364 22.3192 81.318 22.0494L81.052 26.0406C85.1061 26.3108 87.5505 26.7971 88.7034 27.3396L90.4066 23.7204ZM81.3211 22.0496C77.2923 21.7749 71.5233 21.64 64.04 21.64V25.64C71.4967 25.64 77.1577 25.7751 81.049 26.0404L81.3211 22.0496ZM64.04 21.64C54.4412 21.64 46.9955 22.4041 41.8394 24.0273L43.0406 27.8427C47.6045 26.4059 54.5588 25.64 64.04 25.64V21.64ZM41.8718 24.0174C36.7533 25.534 33.1133 28.2096 32.4951 32.5372L36.4549 33.1028C36.7367 31.1304 38.4067 29.216 43.0082 27.8526L41.8718 24.0174ZM34.475 30.82H0.725V34.82H34.475V30.82ZM2.725 32.82C2.725 26.7103 4.92944 21.5058 9.41594 17.1024L6.61407 14.2476C1.38056 19.3842 -1.275 25.6097 -1.275 32.82H2.725ZM9.41594 17.1024C13.9415 12.6607 20.7802 9.14231 30.1258 6.67368L29.1042 2.80632C19.3698 5.37768 11.8085 9.14934 6.61407 14.2476L9.41594 17.1024ZM30.1382 6.67036C39.5432 4.12132 51.2347 2.825 65.255 2.825V-1.175C51.0153 -1.175 38.9468 0.138676 29.0918 2.80964L30.1382 6.67036ZM65.255 2.825C73.5684 2.825 81.3322 3.1826 88.5484 3.89532L88.9416 -0.0853176C81.5778 -0.812599 73.6816 -1.175 65.255 -1.175V2.825ZM88.5749 3.89775C95.8496 4.51876 102.185 5.66805 107.599 7.32722L108.771 3.50277C103.025 1.74195 96.4005 0.551239 88.9151 -0.0877533L88.5749 3.89775ZM107.599 7.32722C112.971 8.9736 117.026 11.2261 119.886 14.0046L122.674 11.1354C119.234 7.79393 114.559 5.2764 108.771 3.50277L107.599 7.32722ZM119.908 14.0252C122.622 16.5845 124.005 19.8661 124.005 24.045H128.005C128.005 18.8639 126.238 14.4955 122.652 11.1148L119.908 14.0252ZM124.005 24.045C124.005 27.6207 122.714 30.4912 120.092 32.8053L122.738 35.8047C126.236 32.7188 128.005 28.7493 128.005 24.045H124.005ZM120.092 32.8053C117.317 35.254 113.285 37.348 107.869 39.0078L109.041 42.8322C114.785 41.072 119.393 38.756 122.738 35.8047L120.092 32.8053ZM107.869 39.0078C102.404 40.6826 95.9316 42.104 88.4391 43.2635L89.0509 47.2165C96.6784 46.036 103.346 44.5774 109.041 42.8322L107.869 39.0078ZM88.4391 43.2635C80.8977 44.4306 72.634 45.5984 63.6472 46.7667L64.1628 50.7333C73.176 49.5616 81.4723 48.3894 89.0509 47.2165L88.4391 43.2635ZM167.846 67.515L167.365 69.4564L167.369 69.4574L167.846 67.515ZM146.516 56.31L145.038 57.6579L145.044 57.6649L145.051 57.6719L146.516 56.31ZM146.516 15.81L145.039 14.4609L145.038 14.4621L146.516 15.81ZM167.846 4.47L168.326 6.41141L168.339 6.40811L167.846 4.47ZM238.991 4.47L238.488 6.40582L238.499 6.40866L238.51 6.41137L238.991 4.47ZM260.186 15.81L258.696 17.1451L258.702 17.1515L258.708 17.1579L260.186 15.81ZM238.991 67.515L238.51 65.5736L238.505 65.5747L238.991 67.515ZM220.361 49.155L220.827 51.0998L220.846 51.0954L220.864 51.0906L220.361 49.155ZM230.621 44.16L229.264 42.6904L230.621 44.16ZM230.621 27.96L229.206 29.3742L229.235 29.4025L229.264 29.4296L230.621 27.96ZM220.496 22.83L219.992 24.7656L220.496 22.83ZM186.611 22.83L187.069 24.7768L187.082 24.7737L187.096 24.7703L186.611 22.83ZM176.081 27.825L174.722 26.3575L174.708 26.3703L174.694 26.3833L176.081 27.825ZM176.081 44.16L177.437 42.6904L176.081 44.16ZM186.476 49.155L185.982 51.093L186.004 51.0987L186.026 51.1038L186.476 49.155ZM203.621 69.025C189.405 69.025 177.653 67.8613 168.322 65.5726L167.369 69.4574C177.118 71.8487 189.216 73.025 203.621 73.025V69.025ZM168.326 65.5736C159.112 63.292 152.401 59.7026 147.98 54.9481L145.051 57.6719C150.17 63.1774 157.679 67.058 167.365 69.4564L168.326 65.5736ZM147.993 54.9621C143.715 50.2732 141.496 44.0392 141.496 36.06H137.496C137.496 44.8208 139.956 52.0868 145.038 57.6579L147.993 54.9621ZM141.496 36.06C141.496 28.0808 143.715 21.8468 147.993 17.1579L145.038 14.4621C139.956 20.0332 137.496 27.2992 137.496 36.06H141.496ZM147.992 17.1591C152.413 12.3212 159.119 8.69114 168.326 6.41137L167.365 2.52863C157.672 4.92885 150.158 8.8588 145.039 14.4609L147.992 17.1591ZM168.339 6.40811C177.663 4.03316 189.409 2.825 203.621 2.825V-1.175C189.212 -1.175 177.108 0.0468407 167.352 2.53188L168.339 6.40811ZM203.621 2.825C217.743 2.825 229.349 4.03329 238.488 6.40582L239.493 2.53417C229.912 0.0467052 217.939 -1.175 203.621 -1.175V2.825ZM238.51 6.41137C247.717 8.69123 254.37 12.3192 258.696 17.1451L261.675 14.4749C256.641 8.86082 249.164 4.92877 239.471 2.52863L238.51 6.41137ZM258.708 17.1579C262.986 21.8468 265.206 28.0808 265.206 36.06H269.206C269.206 27.2992 266.745 20.0332 261.663 14.4621L258.708 17.1579ZM265.206 36.06C265.206 44.0392 262.986 50.2732 258.708 54.9621L261.663 57.6579C266.745 52.0868 269.206 44.8208 269.206 36.06H265.206ZM258.708 54.9621C254.382 59.7046 247.725 63.2919 238.51 65.5736L239.471 69.4564C249.156 67.0581 256.63 63.1754 261.663 57.6579L258.708 54.9621ZM238.505 65.5747C229.36 67.8612 217.746 69.025 203.621 69.025V73.025C217.935 73.025 229.901 71.8488 239.476 69.4553L238.505 65.5747ZM203.621 52.775C210.375 52.775 216.124 52.2286 220.827 51.0998L219.894 47.2102C215.597 48.2414 210.186 48.775 203.621 48.775V52.775ZM220.864 51.0906C225.546 49.8733 229.31 48.0919 231.977 45.6296L229.264 42.6904C227.251 44.5481 224.175 46.0967 219.857 47.2194L220.864 51.0906ZM231.977 45.6296C234.735 43.0836 236.131 39.8471 236.131 36.06H232.131C232.131 38.7529 231.186 40.9164 229.264 42.6904L231.977 45.6296ZM236.131 36.06C236.131 32.2729 234.735 29.0364 231.977 26.4904L229.264 29.4296C231.186 31.2036 232.131 33.3671 232.131 36.06H236.131ZM232.035 26.5458C229.443 23.9538 225.695 22.1153 220.999 20.8944L219.992 24.7656C224.296 25.8847 227.298 27.4662 229.206 29.3742L232.035 26.5458ZM220.999 20.8944C216.281 19.6676 210.519 19.075 203.756 19.075V23.075C210.312 23.075 215.71 23.6524 219.992 24.7656L220.999 20.8944ZM203.756 19.075C196.902 19.075 191.013 19.6678 186.125 20.8897L187.096 24.7703C191.568 23.6522 197.109 23.075 203.756 23.075V19.075ZM186.152 20.8832C181.36 22.0107 177.491 23.7937 174.722 26.3575L177.439 29.2925C179.53 27.3563 182.681 25.8093 187.069 24.7768L186.152 20.8832ZM174.694 26.3833C171.963 29.0096 170.571 32.2748 170.571 36.06H174.571C174.571 33.3652 175.518 31.1404 177.467 29.2667L174.694 26.3833ZM170.571 36.06C170.571 39.8471 171.966 43.0836 174.724 45.6296L177.437 42.6904C175.515 40.9164 174.571 38.7529 174.571 36.06H170.571ZM174.724 45.6296C177.398 48.0984 181.215 49.8779 185.982 51.093L186.97 47.217C182.557 46.0921 179.443 44.5416 177.437 42.6904L174.724 45.6296ZM186.026 51.1038C190.899 52.2284 196.775 52.775 203.621 52.775V48.775C196.966 48.775 191.412 48.2416 186.925 47.2062L186.026 51.1038ZM343.265 48.75L343.521 50.7336L343.523 50.7333L343.265 48.75ZM313.97 52.53L311.98 52.729L312.185 54.7769L314.226 54.5136L313.97 52.53ZM313.835 51.18L313.767 49.1812L311.633 49.2537L311.845 51.379L313.835 51.18ZM405.23 48.075H407.23V46.0059L405.162 46.0762L405.23 48.075ZM405.23 69V71H407.23V69H405.23ZM285.08 69H283.08V71H285.08V69ZM285.08 52.125L284.733 50.1553L283.08 50.4464V52.125H285.08ZM322.745 45.375L323.106 47.3422L323.114 47.3408L323.122 47.3392L322.745 45.375ZM349.61 39.705L350.078 41.6496L350.087 41.6475L350.095 41.6453L349.61 39.705ZM365.81 34.44L366.668 36.2466L366.687 36.2379L366.705 36.2289L365.81 34.44ZM368.915 25.53L368.064 27.3396L368.108 27.3606L368.154 27.3794L368.915 25.53ZM360.545 24.045L360.409 26.0404L360.412 26.0406L360.545 24.045ZM321.8 25.935L322.369 27.8526L322.385 27.8478L322.401 27.8427L321.8 25.935ZM313.835 32.82V34.82H315.57L315.815 33.1028L313.835 32.82ZM280.085 32.82H278.085V34.82H280.085V32.82ZM287.375 15.675L285.974 14.2476L287.375 15.675ZM308.975 4.74L309.486 6.67371L309.499 6.67036L308.975 4.74ZM368.105 1.905L367.909 3.89532L367.922 3.89662L367.935 3.89775L368.105 1.905ZM387.545 5.415L386.959 7.32722L387.545 5.415ZM400.64 12.57L399.247 14.0046L399.257 14.0149L399.268 14.0252L400.64 12.57ZM400.775 34.305L399.452 32.8053L400.775 34.305ZM387.815 40.92L388.401 42.8322L387.815 40.92ZM368.105 45.24L367.799 43.2635L368.105 45.24ZM343.009 46.7664L313.714 50.5464L314.226 54.5136L343.521 50.7336L343.009 46.7664ZM315.96 52.331L315.825 50.981L311.845 51.379L311.98 52.729L315.96 52.331ZM313.903 53.1788L405.298 50.0738L405.162 46.0762L313.767 49.1812L313.903 53.1788ZM403.23 48.075V69H407.23V48.075H403.23ZM405.23 67H285.08V71H405.23V67ZM287.08 69V52.125H283.08V69H287.08ZM285.427 54.0947C299.74 51.5741 312.3 49.3233 323.106 47.3422L322.385 43.4078C311.59 45.3867 299.04 47.6359 284.733 50.1553L285.427 54.0947ZM323.122 47.3392C333.939 45.266 342.927 43.3695 350.078 41.6496L349.143 37.7604C342.074 39.4605 333.152 41.344 322.369 43.4108L323.122 47.3392ZM350.095 41.6453C357.334 39.8356 362.887 38.0426 366.668 36.2466L364.952 32.6334C361.534 34.2573 356.286 35.9744 349.125 37.7647L350.095 41.6453ZM366.705 36.2289C370.351 34.406 373.21 31.9753 373.21 28.635H369.21C369.21 29.4347 368.47 30.874 364.916 32.6511L366.705 36.2289ZM373.21 28.635C373.21 27.5404 372.912 26.4922 372.245 25.59C371.592 24.7065 370.684 24.0955 369.677 23.6806L368.154 27.3794C368.676 27.5945 368.916 27.816 369.028 27.9675C369.126 28.1003 369.21 28.2896 369.21 28.635H373.21ZM369.767 23.7204C367.86 22.8229 364.724 22.3192 360.678 22.0494L360.412 26.0406C364.466 26.3108 366.911 26.7971 368.064 27.3396L369.767 23.7204ZM360.681 22.0496C356.653 21.7749 350.884 21.64 343.4 21.64V25.64C350.857 25.64 356.518 25.7751 360.409 26.0404L360.681 22.0496ZM343.4 21.64C333.802 21.64 326.356 22.4041 321.2 24.0273L322.401 27.8427C326.965 26.4059 333.919 25.64 343.4 25.64V21.64ZM321.232 24.0174C316.114 25.534 312.474 28.2096 311.855 32.5372L315.815 33.1028C316.097 31.1304 317.767 29.216 322.369 27.8526L321.232 24.0174ZM313.835 30.82H280.085V34.82H313.835V30.82ZM282.085 32.82C282.085 26.7103 284.29 21.5058 288.776 17.1024L285.974 14.2476C280.741 19.3842 278.085 25.6097 278.085 32.82H282.085ZM288.776 17.1024C293.302 12.6607 300.141 9.14231 309.486 6.67368L308.465 2.80632C298.73 5.37768 291.169 9.14934 285.974 14.2476L288.776 17.1024ZM309.499 6.67036C318.904 4.12132 330.595 2.825 344.615 2.825V-1.175C330.376 -1.175 318.307 0.138676 308.452 2.80964L309.499 6.67036ZM344.615 2.825C352.929 2.825 360.693 3.1826 367.909 3.89532L368.302 -0.0853176C360.938 -0.812599 353.042 -1.175 344.615 -1.175V2.825ZM367.935 3.89775C375.21 4.51876 381.545 5.66805 386.959 7.32722L388.131 3.50277C382.385 1.74195 375.761 0.551239 368.275 -0.0877533L367.935 3.89775ZM386.959 7.32722C392.332 8.9736 396.387 11.2261 399.247 14.0046L402.034 11.1354C398.594 7.79393 393.919 5.2764 388.131 3.50277L386.959 7.32722ZM399.268 14.0252C401.983 16.5845 403.365 19.8661 403.365 24.045H407.365C407.365 18.8639 405.598 14.4955 402.012 11.1148L399.268 14.0252ZM403.365 24.045C403.365 27.6207 402.075 30.4912 399.452 32.8053L402.099 35.8047C405.596 32.7188 407.365 28.7493 407.365 24.045H403.365ZM399.452 32.8053C396.677 35.254 392.646 37.348 387.229 39.0078L388.401 42.8322C394.145 41.072 398.754 38.756 402.099 35.8047L399.452 32.8053ZM387.229 39.0078C381.764 40.6826 375.292 42.104 367.799 43.2635L368.411 47.2165C376.039 46.036 382.707 44.5774 388.401 42.8322L387.229 39.0078ZM367.799 43.2635C360.258 44.4306 351.994 45.5984 343.008 46.7667L343.523 50.7333C352.536 49.5616 360.833 48.3894 368.411 47.2165L367.799 43.2635ZM478.661 48.75L478.917 50.7336L478.919 50.7333L478.661 48.75ZM449.366 52.53L447.376 52.729L447.581 54.7769L449.622 54.5136L449.366 52.53ZM449.231 51.18L449.163 49.1812L447.028 49.2537L447.241 51.379L449.231 51.18ZM540.626 48.075H542.626V46.0059L540.558 46.0762L540.626 48.075ZM540.626 69V71H542.626V69H540.626ZM420.476 69H418.476V71H420.476V69ZM420.476 52.125L420.129 50.1553L418.476 50.4464V52.125H420.476ZM458.141 45.375L458.502 47.3422L458.509 47.3408L458.517 47.3392L458.141 45.375ZM485.006 39.705L485.474 41.6496L485.482 41.6475L485.491 41.6453L485.006 39.705ZM501.206 34.44L502.064 36.2466L502.082 36.2379L502.1 36.2289L501.206 34.44ZM504.311 25.53L503.459 27.3396L503.504 27.3606L503.549 27.3794L504.311 25.53ZM495.941 24.045L495.805 26.0404L495.808 26.0406L495.941 24.045ZM457.196 25.935L457.764 27.8526L457.78 27.8478L457.796 27.8427L457.196 25.935ZM449.231 32.82V34.82H450.965L451.211 33.1028L449.231 32.82ZM415.481 32.82H413.481V34.82H415.481V32.82ZM422.771 15.675L421.37 14.2476L422.771 15.675ZM444.371 4.74L444.882 6.67371L444.894 6.67036L444.371 4.74ZM503.501 1.905L503.304 3.89532L503.318 3.89662L503.331 3.89775L503.501 1.905ZM522.941 5.415L522.355 7.32722L522.941 5.415ZM536.036 12.57L534.642 14.0046L534.653 14.0149L534.664 14.0252L536.036 12.57ZM536.171 34.305L534.848 32.8053L536.171 34.305ZM523.211 40.92L523.797 42.8322L523.211 40.92ZM503.501 45.24L503.195 43.2635L503.501 45.24ZM478.405 46.7664L449.11 50.5464L449.622 54.5136L478.917 50.7336L478.405 46.7664ZM451.356 52.331L451.221 50.981L447.241 51.379L447.376 52.729L451.356 52.331ZM449.299 53.1788L540.694 50.0738L540.558 46.0762L449.163 49.1812L449.299 53.1788ZM538.626 48.075V69H542.626V48.075H538.626ZM540.626 67H420.476V71H540.626V67ZM422.476 69V52.125H418.476V69H422.476ZM420.823 54.0947C435.136 51.5741 447.696 49.3233 458.502 47.3422L457.78 43.4078C446.986 45.3867 434.436 47.6359 420.129 50.1553L420.823 54.0947ZM458.517 47.3392C469.334 45.266 478.322 43.3695 485.474 41.6496L484.538 37.7604C477.469 39.4605 468.547 41.344 457.764 43.4108L458.517 47.3392ZM485.491 41.6453C492.73 39.8356 498.283 38.0426 502.064 36.2466L500.348 32.6334C496.929 34.2573 491.682 35.9744 484.521 37.7647L485.491 41.6453ZM502.1 36.2289C505.746 34.406 508.606 31.9753 508.606 28.635H504.606C504.606 29.4347 503.866 30.874 500.311 32.6511L502.1 36.2289ZM508.606 28.635C508.606 27.5404 508.307 26.4922 507.64 25.59C506.987 24.7065 506.08 24.0955 505.072 23.6806L503.549 27.3794C504.072 27.5945 504.312 27.816 504.424 27.9675C504.522 28.1003 504.606 28.2896 504.606 28.635H508.606ZM505.162 23.7204C503.255 22.8229 500.12 22.3192 496.074 22.0494L495.808 26.0406C499.862 26.3108 502.306 26.7971 503.459 27.3396L505.162 23.7204ZM496.077 22.0496C492.048 21.7749 486.279 21.64 478.796 21.64V25.64C486.253 25.64 491.914 25.7751 495.805 26.0404L496.077 22.0496ZM478.796 21.64C469.197 21.64 461.751 22.4041 456.595 24.0273L457.796 27.8427C462.36 26.4059 469.315 25.64 478.796 25.64V21.64ZM456.628 24.0174C451.509 25.534 447.869 28.2096 447.251 32.5372L451.211 33.1028C451.493 31.1304 453.163 29.216 457.764 27.8526L456.628 24.0174ZM449.231 30.82H415.481V34.82H449.231V30.82ZM417.481 32.82C417.481 26.7103 419.685 21.5058 424.172 17.1024L421.37 14.2476C416.136 19.3842 413.481 25.6097 413.481 32.82H417.481ZM424.172 17.1024C428.697 12.6607 435.536 9.14231 444.882 6.67368L443.86 2.80632C434.126 5.37768 426.564 9.14934 421.37 14.2476L424.172 17.1024ZM444.894 6.67036C454.299 4.12132 465.991 2.825 480.011 2.825V-1.175C465.771 -1.175 453.703 0.138676 443.848 2.80964L444.894 6.67036ZM480.011 2.825C488.324 2.825 496.088 3.1826 503.304 3.89532L503.697 -0.0853176C496.334 -0.812599 488.437 -1.175 480.011 -1.175V2.825ZM503.331 3.89775C510.605 4.51876 516.941 5.66805 522.355 7.32722L523.527 3.50277C517.781 1.74195 511.156 0.551239 503.671 -0.0877533L503.331 3.89775ZM522.355 7.32722C527.727 8.9736 531.782 11.2261 534.642 14.0046L537.429 11.1354C533.99 7.79393 529.315 5.2764 523.527 3.50277L522.355 7.32722ZM534.664 14.0252C537.378 16.5845 538.761 19.8661 538.761 24.045H542.761C542.761 18.8639 540.993 14.4955 537.408 11.1148L534.664 14.0252ZM538.761 24.045C538.761 27.6207 537.47 30.4912 534.848 32.8053L537.494 35.8047C540.991 32.7188 542.761 28.7493 542.761 24.045H538.761ZM534.848 32.8053C532.072 35.254 528.041 37.348 522.625 39.0078L523.797 42.8322C529.541 41.072 534.149 38.756 537.494 35.8047L534.848 32.8053ZM522.625 39.0078C517.16 40.6826 510.688 42.104 503.195 43.2635L503.807 47.2165C511.434 46.036 518.102 44.5774 523.797 42.8322L522.625 39.0078ZM503.195 43.2635C495.654 44.4306 487.39 45.5984 478.403 46.7667L478.919 50.7333C487.932 49.5616 496.228 48.3894 503.807 47.2165L503.195 43.2635Z" fill="white"/>
</svg>
